<mxfile host="www.draw.io" modified="2020-03-09T02:02:27.795Z" agent="Mozilla/5.0 (Windows NT 10.0; Win64; x64) AppleWebKit/537.36 (KHTML, like Gecko) Chrome/80.0.3987.132 Safari/537.36" etag="WLzqv_OHRy4SPHXcbIMJ" version="12.8.1" type="github">
  <diagram id="Qx-I0IMG4ZqsPPICAm13" name="第 1 页">
    <mxGraphModel dx="1570" dy="902" grid="1" gridSize="10" guides="1" tooltips="1" connect="1" arrows="1" fold="1" page="1" pageScale="1" pageWidth="827" pageHeight="1169" math="0" shadow="0">
      <root>
        <mxCell id="0" />
        <mxCell id="1" parent="0" />
        <mxCell id="Bu4rXw2DOO9tjyWhjlKE-10" value="" style="rounded=1;whiteSpace=wrap;html=1;strokeWidth=3;shadow=0;comic=0;glass=1;" parent="1" vertex="1">
          <mxGeometry x="100" y="110" width="280" height="230" as="geometry" />
        </mxCell>
        <mxCell id="Bu4rXw2DOO9tjyWhjlKE-11" value="&lt;font style=&quot;font-size: 19px&quot;&gt;IPhone APP&lt;/font&gt;" style="rounded=0;whiteSpace=wrap;html=1;fillColor=#b0e3e6;strokeWidth=4;shadow=0;comic=0;glass=1;strokeColor=#0e8088;" parent="1" vertex="1">
          <mxGeometry x="100" y="110" width="280" height="50" as="geometry" />
        </mxCell>
        <mxCell id="3yAqZI5W9x5ebgiva7oP-36" style="edgeStyle=orthogonalEdgeStyle;rounded=0;orthogonalLoop=1;jettySize=auto;html=1;exitX=0.5;exitY=1;exitDx=0;exitDy=0;entryX=0.25;entryY=0;entryDx=0;entryDy=0;startArrow=classic;startFill=1;strokeWidth=4;fillColor=#dae8fc;strokeColor=#6c8ebf;" parent="1" source="Bu4rXw2DOO9tjyWhjlKE-12" target="Bu4rXw2DOO9tjyWhjlKE-14" edge="1">
          <mxGeometry relative="1" as="geometry" />
        </mxCell>
        <mxCell id="Bu4rXw2DOO9tjyWhjlKE-12" value="SIP/RTP" style="rounded=1;whiteSpace=wrap;html=1;fillColor=#dae8fc;strokeColor=#6c8ebf;strokeWidth=3;shadow=0;comic=0;glass=1;" parent="1" vertex="1">
          <mxGeometry x="100" y="280" width="100" height="60" as="geometry" />
        </mxCell>
        <mxCell id="Bu4rXw2DOO9tjyWhjlKE-14" value="&lt;font style=&quot;font-size: 19px&quot;&gt;FREESWITCH&lt;/font&gt;" style="rounded=0;whiteSpace=wrap;html=1;fillColor=#dae8fc;strokeColor=#6c8ebf;" parent="1" vertex="1">
          <mxGeometry x="92" y="709" width="230" height="80" as="geometry" />
        </mxCell>
        <mxCell id="3yAqZI5W9x5ebgiva7oP-35" style="edgeStyle=orthogonalEdgeStyle;rounded=0;orthogonalLoop=1;jettySize=auto;html=1;exitX=0.5;exitY=1;exitDx=0;exitDy=0;entryX=0.25;entryY=0;entryDx=0;entryDy=0;startArrow=classic;startFill=1;strokeWidth=4;" parent="1" source="Bu4rXw2DOO9tjyWhjlKE-13" target="Bu4rXw2DOO9tjyWhjlKE-17" edge="1">
          <mxGeometry relative="1" as="geometry">
            <Array as="points">
              <mxPoint x="245" y="520" />
              <mxPoint x="618" y="520" />
            </Array>
          </mxGeometry>
        </mxCell>
        <mxCell id="Bu4rXw2DOO9tjyWhjlKE-13" value="WAMP" style="rounded=1;whiteSpace=wrap;html=1;fillColor=#f5f5f5;strokeColor=#666666;strokeWidth=1;fontColor=#333333;shadow=0;comic=0;glass=1;" parent="1" vertex="1">
          <mxGeometry x="200" y="280" width="90" height="60" as="geometry" />
        </mxCell>
        <mxCell id="Bu4rXw2DOO9tjyWhjlKE-17" value="&lt;font style=&quot;font-size: 19px&quot;&gt;UFO&lt;/font&gt;" style="rounded=0;whiteSpace=wrap;html=1;" parent="1" vertex="1">
          <mxGeometry x="570" y="710" width="190" height="80" as="geometry" />
        </mxCell>
        <mxCell id="Bu4rXw2DOO9tjyWhjlKE-23" value="UCTALK" style="rounded=0;whiteSpace=wrap;html=1;fillColor=#dae8fc;strokeColor=#6c8ebf;strokeWidth=3;shadow=0;comic=0;glass=1;" parent="1" vertex="1">
          <mxGeometry x="100" y="220" width="100" height="60" as="geometry" />
        </mxCell>
        <mxCell id="3yAqZI5W9x5ebgiva7oP-34" style="edgeStyle=orthogonalEdgeStyle;rounded=0;orthogonalLoop=1;jettySize=auto;html=1;exitX=0.5;exitY=1;exitDx=0;exitDy=0;entryX=0.25;entryY=0;entryDx=0;entryDy=0;startArrow=classic;startFill=1;fillColor=#fff2cc;strokeColor=#d6b656;strokeWidth=4;" parent="1" source="Bu4rXw2DOO9tjyWhjlKE-26" target="Bu4rXw2DOO9tjyWhjlKE-38" edge="1">
          <mxGeometry relative="1" as="geometry">
            <Array as="points">
              <mxPoint x="335" y="500" />
              <mxPoint x="815" y="500" />
            </Array>
          </mxGeometry>
        </mxCell>
        <mxCell id="Bu4rXw2DOO9tjyWhjlKE-26" value="XMPP" style="rounded=1;whiteSpace=wrap;html=1;fillColor=#fff2cc;strokeColor=#d6b656;strokeWidth=3;shadow=0;comic=0;glass=1;" parent="1" vertex="1">
          <mxGeometry x="290" y="280" width="90" height="60" as="geometry" />
        </mxCell>
        <mxCell id="Bu4rXw2DOO9tjyWhjlKE-28" value="&lt;p class=&quot;MsoNormal&quot;&gt;&lt;span style=&quot;font-size: 10.5000pt&quot;&gt;Swiften&lt;/span&gt;&lt;/p&gt;&lt;p class=&quot;MsoNormal&quot;&gt;&lt;span style=&quot;font-size: 10.5000pt&quot;&gt;(c++)&lt;/span&gt;&lt;span style=&quot;font-size: 10.5000pt&quot;&gt;&lt;font face=&quot;宋体&quot;&gt;库&lt;/font&gt;&lt;/span&gt;&lt;/p&gt;" style="rounded=0;html=1;whiteSpace=wrap;fillColor=#fff2cc;strokeColor=#d6b656;strokeWidth=3;shadow=0;comic=0;glass=1;" parent="1" vertex="1">
          <mxGeometry x="290" y="220" width="90" height="60" as="geometry" />
        </mxCell>
        <mxCell id="Bu4rXw2DOO9tjyWhjlKE-30" value="&lt;p class=&quot;15&quot; style=&quot;margin-left: 18.0000pt ; text-indent: -18.0000pt&quot;&gt;&lt;span style=&quot;font-size: 10.5000pt&quot;&gt;AutobahnCpp&lt;/span&gt;&lt;/p&gt;&lt;p class=&quot;15&quot; style=&quot;margin-left: 18.0000pt ; text-indent: -18.0000pt&quot;&gt;&lt;span style=&quot;font-size: 10.5000pt&quot;&gt;(c++)&lt;/span&gt;&lt;span style=&quot;font-size: 10.5000pt&quot;&gt;&lt;font face=&quot;等线&quot;&gt;库&lt;/font&gt;&lt;/span&gt;&lt;span style=&quot;font-size: 10.5000pt&quot;&gt;&lt;/span&gt;&lt;/p&gt;" style="rounded=0;html=1;whiteSpace=wrap;fillColor=#f5f5f5;strokeColor=#666666;strokeWidth=1;fontColor=#333333;shadow=0;comic=0;glass=1;" parent="1" vertex="1">
          <mxGeometry x="200" y="220" width="90" height="60" as="geometry" />
        </mxCell>
        <mxCell id="Bu4rXw2DOO9tjyWhjlKE-31" value="LOCAL API" style="rounded=0;whiteSpace=wrap;html=1;fillColor=#dae8fc;strokeColor=#6c8ebf;strokeWidth=3;shadow=0;comic=0;glass=1;" parent="1" vertex="1">
          <mxGeometry x="100" y="160" width="100" height="60" as="geometry" />
        </mxCell>
        <mxCell id="Bu4rXw2DOO9tjyWhjlKE-34" value="UFO API" style="rounded=0;whiteSpace=wrap;html=1;fillColor=#f5f5f5;strokeColor=#666666;strokeWidth=1;fontColor=#333333;shadow=0;comic=0;glass=1;" parent="1" vertex="1">
          <mxGeometry x="200" y="160" width="90" height="60" as="geometry" />
        </mxCell>
        <mxCell id="Bu4rXw2DOO9tjyWhjlKE-36" value="LOCAL API" style="rounded=0;whiteSpace=wrap;html=1;fillColor=#fff2cc;strokeColor=#d6b656;strokeWidth=3;shadow=0;comic=0;glass=1;" parent="1" vertex="1">
          <mxGeometry x="290" y="160" width="90" height="60" as="geometry" />
        </mxCell>
        <mxCell id="Bu4rXw2DOO9tjyWhjlKE-38" value="&lt;font style=&quot;font-size: 19px&quot;&gt;OPENFIRE&lt;/font&gt;" style="rounded=0;whiteSpace=wrap;html=1;fillColor=#fff2cc;strokeColor=#d6b656;" parent="1" vertex="1">
          <mxGeometry x="760" y="710" width="220" height="80" as="geometry" />
        </mxCell>
        <mxCell id="3yAqZI5W9x5ebgiva7oP-1" value="" style="rounded=1;whiteSpace=wrap;html=1;strokeWidth=3;shadow=0;comic=0;glass=1;" parent="1" vertex="1">
          <mxGeometry x="450" y="110" width="280" height="230" as="geometry" />
        </mxCell>
        <mxCell id="3yAqZI5W9x5ebgiva7oP-2" value="&lt;font style=&quot;font-size: 19px&quot;&gt;Android APP&lt;/font&gt;" style="rounded=0;whiteSpace=wrap;html=1;fillColor=#b0e3e6;strokeWidth=3;shadow=0;comic=0;glass=1;strokeColor=#0e8088;" parent="1" vertex="1">
          <mxGeometry x="450" y="110" width="280" height="50" as="geometry" />
        </mxCell>
        <mxCell id="3yAqZI5W9x5ebgiva7oP-29" style="edgeStyle=orthogonalEdgeStyle;rounded=0;orthogonalLoop=1;jettySize=auto;html=1;exitX=0.5;exitY=1;exitDx=0;exitDy=0;startArrow=classic;startFill=1;fillColor=#dae8fc;strokeColor=#6c8ebf;strokeWidth=4;" parent="1" source="3yAqZI5W9x5ebgiva7oP-3" target="Bu4rXw2DOO9tjyWhjlKE-14" edge="1">
          <mxGeometry relative="1" as="geometry">
            <mxPoint x="180" y="520" as="targetPoint" />
            <Array as="points">
              <mxPoint x="500" y="480" />
              <mxPoint x="200" y="480" />
            </Array>
          </mxGeometry>
        </mxCell>
        <mxCell id="3yAqZI5W9x5ebgiva7oP-3" value="SIP/RTP" style="rounded=1;whiteSpace=wrap;html=1;fillColor=#dae8fc;strokeColor=#6c8ebf;strokeWidth=3;shadow=0;comic=0;glass=1;" parent="1" vertex="1">
          <mxGeometry x="450" y="280" width="100" height="60" as="geometry" />
        </mxCell>
        <mxCell id="3yAqZI5W9x5ebgiva7oP-30" style="edgeStyle=orthogonalEdgeStyle;rounded=0;orthogonalLoop=1;jettySize=auto;html=1;exitX=0.5;exitY=1;exitDx=0;exitDy=0;entryX=0.5;entryY=0;entryDx=0;entryDy=0;startArrow=classic;startFill=1;strokeWidth=4;" parent="1" source="3yAqZI5W9x5ebgiva7oP-4" target="Bu4rXw2DOO9tjyWhjlKE-17" edge="1">
          <mxGeometry relative="1" as="geometry">
            <Array as="points">
              <mxPoint x="595" y="470" />
              <mxPoint x="665" y="470" />
            </Array>
          </mxGeometry>
        </mxCell>
        <mxCell id="3yAqZI5W9x5ebgiva7oP-4" value="WAMP" style="rounded=1;whiteSpace=wrap;html=1;fillColor=#f5f5f5;strokeColor=#666666;strokeWidth=1;fontColor=#333333;shadow=0;comic=0;glass=1;" parent="1" vertex="1">
          <mxGeometry x="550" y="280" width="90" height="60" as="geometry" />
        </mxCell>
        <mxCell id="3yAqZI5W9x5ebgiva7oP-5" value="UCTALK" style="rounded=0;whiteSpace=wrap;html=1;fillColor=#dae8fc;strokeColor=#6c8ebf;strokeWidth=3;shadow=0;comic=0;glass=1;" parent="1" vertex="1">
          <mxGeometry x="450" y="220" width="100" height="60" as="geometry" />
        </mxCell>
        <mxCell id="3yAqZI5W9x5ebgiva7oP-27" style="edgeStyle=orthogonalEdgeStyle;rounded=0;orthogonalLoop=1;jettySize=auto;html=1;exitX=0.5;exitY=1;exitDx=0;exitDy=0;startArrow=classic;startFill=1;fillColor=#fff2cc;strokeColor=#d6b656;strokeWidth=4;" parent="1" source="3yAqZI5W9x5ebgiva7oP-6" target="Bu4rXw2DOO9tjyWhjlKE-38" edge="1">
          <mxGeometry relative="1" as="geometry" />
        </mxCell>
        <mxCell id="3yAqZI5W9x5ebgiva7oP-6" value="XMPP" style="rounded=1;whiteSpace=wrap;html=1;fillColor=#fff2cc;strokeColor=#d6b656;strokeWidth=3;shadow=0;comic=0;glass=1;" parent="1" vertex="1">
          <mxGeometry x="640" y="280" width="90" height="60" as="geometry" />
        </mxCell>
        <mxCell id="3yAqZI5W9x5ebgiva7oP-7" value="&lt;p class=&quot;MsoNormal&quot;&gt;&lt;span style=&quot;font-size: 10.5000pt&quot;&gt;Swiften&lt;/span&gt;&lt;/p&gt;&lt;p class=&quot;MsoNormal&quot;&gt;&lt;span style=&quot;font-size: 10.5000pt&quot;&gt;(c++)&lt;/span&gt;&lt;span style=&quot;font-size: 10.5000pt&quot;&gt;&lt;font face=&quot;宋体&quot;&gt;库&lt;/font&gt;&lt;/span&gt;&lt;/p&gt;" style="rounded=0;html=1;whiteSpace=wrap;fillColor=#fff2cc;strokeColor=#d6b656;strokeWidth=3;shadow=0;comic=0;glass=1;" parent="1" vertex="1">
          <mxGeometry x="640" y="220" width="90" height="60" as="geometry" />
        </mxCell>
        <mxCell id="3yAqZI5W9x5ebgiva7oP-8" value="&lt;p class=&quot;15&quot; style=&quot;margin-left: 18.0000pt ; text-indent: -18.0000pt&quot;&gt;&lt;span style=&quot;font-size: 10.5000pt&quot;&gt;AutobahnCpp&lt;/span&gt;&lt;/p&gt;&lt;p class=&quot;15&quot; style=&quot;margin-left: 18.0000pt ; text-indent: -18.0000pt&quot;&gt;&lt;span style=&quot;font-size: 10.5000pt&quot;&gt;(c++)&lt;/span&gt;&lt;span style=&quot;font-size: 10.5000pt&quot;&gt;&lt;font face=&quot;等线&quot;&gt;库&lt;/font&gt;&lt;/span&gt;&lt;span style=&quot;font-size: 10.5000pt&quot;&gt;&lt;/span&gt;&lt;/p&gt;" style="rounded=0;html=1;whiteSpace=wrap;fillColor=#f5f5f5;strokeColor=#666666;strokeWidth=1;fontColor=#333333;shadow=0;comic=0;glass=1;" parent="1" vertex="1">
          <mxGeometry x="550" y="220" width="90" height="60" as="geometry" />
        </mxCell>
        <mxCell id="3yAqZI5W9x5ebgiva7oP-9" value="LOCAL API" style="rounded=0;whiteSpace=wrap;html=1;fillColor=#dae8fc;strokeColor=#6c8ebf;strokeWidth=3;shadow=0;comic=0;glass=1;" parent="1" vertex="1">
          <mxGeometry x="450" y="160" width="100" height="60" as="geometry" />
        </mxCell>
        <mxCell id="3yAqZI5W9x5ebgiva7oP-10" value="UFO API" style="rounded=0;whiteSpace=wrap;html=1;fillColor=#f5f5f5;strokeColor=#666666;strokeWidth=1;fontColor=#333333;shadow=0;comic=0;glass=1;" parent="1" vertex="1">
          <mxGeometry x="550" y="160" width="90" height="60" as="geometry" />
        </mxCell>
        <mxCell id="3yAqZI5W9x5ebgiva7oP-11" value="LOCAL API" style="rounded=0;whiteSpace=wrap;html=1;fillColor=#fff2cc;strokeColor=#d6b656;strokeWidth=3;shadow=0;comic=0;glass=1;" parent="1" vertex="1">
          <mxGeometry x="640" y="160" width="90" height="60" as="geometry" />
        </mxCell>
        <mxCell id="3yAqZI5W9x5ebgiva7oP-12" value="" style="rounded=1;whiteSpace=wrap;html=1;strokeWidth=3;shadow=0;comic=0;glass=1;" parent="1" vertex="1">
          <mxGeometry x="790" y="110" width="280" height="230" as="geometry" />
        </mxCell>
        <mxCell id="3yAqZI5W9x5ebgiva7oP-13" value="&lt;span style=&quot;font-size: 19px&quot;&gt;Browsers&lt;/span&gt;" style="rounded=0;whiteSpace=wrap;html=1;fillColor=#b0e3e6;strokeWidth=3;shadow=0;comic=0;glass=1;strokeColor=#0e8088;" parent="1" vertex="1">
          <mxGeometry x="790" y="110" width="280" height="50" as="geometry" />
        </mxCell>
        <mxCell id="3yAqZI5W9x5ebgiva7oP-37" style="edgeStyle=orthogonalEdgeStyle;rounded=0;orthogonalLoop=1;jettySize=auto;html=1;exitX=0.5;exitY=1;exitDx=0;exitDy=0;startArrow=classic;startFill=1;strokeWidth=4;fillColor=#dae8fc;strokeColor=#6c8ebf;" parent="1" source="3yAqZI5W9x5ebgiva7oP-14" target="Bu4rXw2DOO9tjyWhjlKE-14" edge="1">
          <mxGeometry relative="1" as="geometry">
            <Array as="points">
              <mxPoint x="840" y="550" />
              <mxPoint x="243" y="550" />
            </Array>
          </mxGeometry>
        </mxCell>
        <mxCell id="3yAqZI5W9x5ebgiva7oP-14" value="&lt;h4 class=&quot;intro cye-lm-tag&quot; style=&quot;margin: 0px ; padding: 0px ; box-sizing: border-box ; border: 0px ; font-size: 1.1em ; font-family: &amp;#34;proximanovasoft&amp;#34; , &amp;#34;varela round&amp;#34; , sans-serif ; font-weight: 400 ; color: rgb(64 , 69 , 71) ; letter-spacing: 0.02em ; line-height: 1.4em&quot;&gt;SIP/&lt;/h4&gt;WEBRTC" style="rounded=1;whiteSpace=wrap;html=1;fillColor=#dae8fc;strokeColor=#6c8ebf;strokeWidth=3;shadow=0;comic=0;glass=1;" parent="1" vertex="1">
          <mxGeometry x="790" y="280" width="100" height="60" as="geometry" />
        </mxCell>
        <mxCell id="3yAqZI5W9x5ebgiva7oP-32" style="edgeStyle=orthogonalEdgeStyle;rounded=0;orthogonalLoop=1;jettySize=auto;html=1;exitX=0.5;exitY=1;exitDx=0;exitDy=0;entryX=0.75;entryY=0;entryDx=0;entryDy=0;startArrow=classic;startFill=1;strokeWidth=4;" parent="1" source="3yAqZI5W9x5ebgiva7oP-15" target="Bu4rXw2DOO9tjyWhjlKE-17" edge="1">
          <mxGeometry relative="1" as="geometry">
            <Array as="points">
              <mxPoint x="935" y="590" />
              <mxPoint x="713" y="590" />
            </Array>
          </mxGeometry>
        </mxCell>
        <mxCell id="3yAqZI5W9x5ebgiva7oP-15" value="WAMP" style="rounded=1;whiteSpace=wrap;html=1;fillColor=#f5f5f5;strokeColor=#666666;strokeWidth=1;fontColor=#333333;shadow=0;comic=0;glass=1;" parent="1" vertex="1">
          <mxGeometry x="890" y="280" width="90" height="60" as="geometry" />
        </mxCell>
        <mxCell id="3yAqZI5W9x5ebgiva7oP-16" value="SIP.JS" style="rounded=0;whiteSpace=wrap;html=1;fillColor=#dae8fc;strokeColor=#6c8ebf;strokeWidth=3;shadow=0;comic=0;glass=1;" parent="1" vertex="1">
          <mxGeometry x="790" y="220" width="100" height="60" as="geometry" />
        </mxCell>
        <mxCell id="3yAqZI5W9x5ebgiva7oP-33" style="edgeStyle=orthogonalEdgeStyle;rounded=0;orthogonalLoop=1;jettySize=auto;html=1;exitX=0.5;exitY=1;exitDx=0;exitDy=0;entryX=0.75;entryY=0;entryDx=0;entryDy=0;startArrow=classic;startFill=1;fillColor=#fff2cc;strokeColor=#d6b656;strokeWidth=4;" parent="1" source="3yAqZI5W9x5ebgiva7oP-17" target="Bu4rXw2DOO9tjyWhjlKE-38" edge="1">
          <mxGeometry relative="1" as="geometry" />
        </mxCell>
        <mxCell id="3yAqZI5W9x5ebgiva7oP-17" value="XMPP" style="rounded=1;whiteSpace=wrap;html=1;fillColor=#fff2cc;strokeColor=#d6b656;strokeWidth=3;shadow=0;comic=0;glass=1;" parent="1" vertex="1">
          <mxGeometry x="980" y="280" width="90" height="60" as="geometry" />
        </mxCell>
        <mxCell id="3yAqZI5W9x5ebgiva7oP-18" value="&lt;p class=&quot;MsoNormal&quot;&gt;&lt;span style=&quot;font-size: 10.5000pt&quot;&gt;xmppjs&lt;/span&gt;&lt;/p&gt;" style="rounded=0;html=1;whiteSpace=wrap;fillColor=#fff2cc;strokeColor=#d6b656;strokeWidth=3;shadow=0;comic=0;glass=1;" parent="1" vertex="1">
          <mxGeometry x="980" y="220" width="90" height="60" as="geometry" />
        </mxCell>
        <mxCell id="3yAqZI5W9x5ebgiva7oP-19" value="&lt;p class=&quot;MsoNormal&quot;&gt;&lt;span style=&quot;font-size: 10.5000pt&quot;&gt;AutobahnJS&lt;/span&gt;&lt;/p&gt;" style="rounded=0;html=1;whiteSpace=wrap;fillColor=#f5f5f5;strokeColor=#666666;strokeWidth=1;fontColor=#333333;shadow=0;comic=0;glass=1;" parent="1" vertex="1">
          <mxGeometry x="890" y="220" width="90" height="60" as="geometry" />
        </mxCell>
        <mxCell id="3yAqZI5W9x5ebgiva7oP-20" value="LOCAL API" style="rounded=0;whiteSpace=wrap;html=1;fillColor=#dae8fc;strokeColor=#6c8ebf;strokeWidth=3;shadow=0;comic=0;glass=1;" parent="1" vertex="1">
          <mxGeometry x="790" y="160" width="100" height="60" as="geometry" />
        </mxCell>
        <mxCell id="3yAqZI5W9x5ebgiva7oP-21" value="UFO API" style="rounded=0;whiteSpace=wrap;html=1;fillColor=#f5f5f5;strokeColor=#666666;strokeWidth=1;fontColor=#333333;shadow=0;comic=0;glass=1;" parent="1" vertex="1">
          <mxGeometry x="890" y="160" width="90" height="60" as="geometry" />
        </mxCell>
        <mxCell id="3yAqZI5W9x5ebgiva7oP-22" value="LOCAL API" style="rounded=0;whiteSpace=wrap;html=1;fillColor=#fff2cc;strokeColor=#d6b656;strokeWidth=3;shadow=0;comic=0;glass=1;" parent="1" vertex="1">
          <mxGeometry x="980" y="160" width="90" height="60" as="geometry" />
        </mxCell>
        <mxCell id="3yAqZI5W9x5ebgiva7oP-39" value="" style="shape=flexArrow;endArrow=classic;startArrow=classic;html=1;strokeWidth=4;exitX=1;exitY=0.5;exitDx=0;exitDy=0;fillColor=#e1d5e7;strokeColor=#9673a6;dashed=1;entryX=0;entryY=0.5;entryDx=0;entryDy=0;" parent="1" source="Bu4rXw2DOO9tjyWhjlKE-14" target="Bu4rXw2DOO9tjyWhjlKE-17" edge="1">
          <mxGeometry width="50" height="50" relative="1" as="geometry">
            <mxPoint x="380" y="800" as="sourcePoint" />
            <mxPoint x="430" y="750" as="targetPoint" />
          </mxGeometry>
        </mxCell>
        <mxCell id="3yAqZI5W9x5ebgiva7oP-44" value="" style="edgeStyle=orthogonalEdgeStyle;rounded=0;orthogonalLoop=1;jettySize=auto;html=1;dashed=1;startArrow=classic;startFill=1;strokeWidth=4;" parent="1" edge="1">
          <mxGeometry relative="1" as="geometry">
            <mxPoint x="720" y="749.5" as="sourcePoint" />
            <mxPoint x="800" y="749.5" as="targetPoint" />
          </mxGeometry>
        </mxCell>
        <mxCell id="3yAqZI5W9x5ebgiva7oP-46" value="&lt;font style=&quot;font-size: 22px&quot;&gt;插件&lt;/font&gt;" style="text;html=1;strokeColor=none;fillColor=none;align=center;verticalAlign=middle;whiteSpace=wrap;rounded=0;strokeWidth=5;" parent="1" vertex="1">
          <mxGeometry x="741" y="737" width="40" height="20" as="geometry" />
        </mxCell>
        <mxCell id="3yAqZI5W9x5ebgiva7oP-48" value="&lt;span style=&quot;font-size: 22px&quot;&gt;event socket&lt;/span&gt;" style="text;html=1;strokeColor=none;fillColor=none;align=center;verticalAlign=middle;whiteSpace=wrap;rounded=0;strokeWidth=5;" parent="1" vertex="1">
          <mxGeometry x="420" y="757" width="40" height="43" as="geometry" />
        </mxCell>
        <mxCell id="DMQ3Dl5OGwyhOGXW6RPz-1" value="" style="rounded=1;whiteSpace=wrap;html=1;strokeWidth=3;shadow=0;comic=0;glass=1;" vertex="1" parent="1">
          <mxGeometry x="1101" y="110" width="280" height="230" as="geometry" />
        </mxCell>
        <mxCell id="DMQ3Dl5OGwyhOGXW6RPz-2" value="&lt;font style=&quot;font-size: 19px&quot;&gt;Windows10 Desktop APP&lt;/font&gt;" style="rounded=0;whiteSpace=wrap;html=1;fillColor=#b0e3e6;strokeWidth=3;shadow=0;comic=0;glass=1;strokeColor=#0e8088;" vertex="1" parent="1">
          <mxGeometry x="1101" y="110" width="280" height="50" as="geometry" />
        </mxCell>
        <mxCell id="DMQ3Dl5OGwyhOGXW6RPz-3" value="SIP/RTP" style="rounded=1;whiteSpace=wrap;html=1;fillColor=#dae8fc;strokeColor=#6c8ebf;strokeWidth=3;shadow=0;comic=0;glass=1;" vertex="1" parent="1">
          <mxGeometry x="1101" y="280" width="100" height="60" as="geometry" />
        </mxCell>
        <mxCell id="DMQ3Dl5OGwyhOGXW6RPz-4" value="WAMP" style="rounded=1;whiteSpace=wrap;html=1;fillColor=#f5f5f5;strokeColor=#666666;strokeWidth=1;fontColor=#333333;shadow=0;comic=0;glass=1;" vertex="1" parent="1">
          <mxGeometry x="1201" y="280" width="90" height="60" as="geometry" />
        </mxCell>
        <mxCell id="DMQ3Dl5OGwyhOGXW6RPz-5" value="UCTALK" style="rounded=0;whiteSpace=wrap;html=1;fillColor=#dae8fc;strokeColor=#6c8ebf;strokeWidth=3;shadow=0;comic=0;glass=1;" vertex="1" parent="1">
          <mxGeometry x="1101" y="220" width="100" height="60" as="geometry" />
        </mxCell>
        <mxCell id="DMQ3Dl5OGwyhOGXW6RPz-6" value="XMPP" style="rounded=1;whiteSpace=wrap;html=1;fillColor=#fff2cc;strokeColor=#d6b656;strokeWidth=3;shadow=0;comic=0;glass=1;" vertex="1" parent="1">
          <mxGeometry x="1291" y="280" width="90" height="60" as="geometry" />
        </mxCell>
        <mxCell id="DMQ3Dl5OGwyhOGXW6RPz-7" value="&lt;p class=&quot;MsoNormal&quot;&gt;&lt;span style=&quot;font-size: 10.5000pt&quot;&gt;Swiften&lt;/span&gt;&lt;/p&gt;&lt;p class=&quot;MsoNormal&quot;&gt;&lt;span style=&quot;font-size: 10.5000pt&quot;&gt;(c++)&lt;/span&gt;&lt;span style=&quot;font-size: 10.5000pt&quot;&gt;&lt;font face=&quot;宋体&quot;&gt;库&lt;/font&gt;&lt;/span&gt;&lt;/p&gt;" style="rounded=0;html=1;whiteSpace=wrap;fillColor=#fff2cc;strokeColor=#d6b656;strokeWidth=3;shadow=0;comic=0;glass=1;" vertex="1" parent="1">
          <mxGeometry x="1291" y="220" width="90" height="60" as="geometry" />
        </mxCell>
        <mxCell id="DMQ3Dl5OGwyhOGXW6RPz-8" value="&lt;p class=&quot;15&quot; style=&quot;margin-left: 18.0000pt ; text-indent: -18.0000pt&quot;&gt;&lt;span style=&quot;font-size: 10.5000pt&quot;&gt;AutobahnCpp&lt;/span&gt;&lt;/p&gt;&lt;p class=&quot;15&quot; style=&quot;margin-left: 18.0000pt ; text-indent: -18.0000pt&quot;&gt;&lt;span style=&quot;font-size: 10.5000pt&quot;&gt;(c++)&lt;/span&gt;&lt;span style=&quot;font-size: 10.5000pt&quot;&gt;&lt;font face=&quot;等线&quot;&gt;库&lt;/font&gt;&lt;/span&gt;&lt;span style=&quot;font-size: 10.5000pt&quot;&gt;&lt;/span&gt;&lt;/p&gt;" style="rounded=0;html=1;whiteSpace=wrap;fillColor=#f5f5f5;strokeColor=#666666;strokeWidth=1;fontColor=#333333;shadow=0;comic=0;glass=1;" vertex="1" parent="1">
          <mxGeometry x="1201" y="220" width="90" height="60" as="geometry" />
        </mxCell>
        <mxCell id="DMQ3Dl5OGwyhOGXW6RPz-9" value="LOCAL API" style="rounded=0;whiteSpace=wrap;html=1;fillColor=#dae8fc;strokeColor=#6c8ebf;strokeWidth=3;shadow=0;comic=0;glass=1;" vertex="1" parent="1">
          <mxGeometry x="1101" y="160" width="100" height="60" as="geometry" />
        </mxCell>
        <mxCell id="DMQ3Dl5OGwyhOGXW6RPz-10" value="UFO API" style="rounded=0;whiteSpace=wrap;html=1;fillColor=#f5f5f5;strokeColor=#666666;strokeWidth=1;fontColor=#333333;shadow=0;comic=0;glass=1;" vertex="1" parent="1">
          <mxGeometry x="1201" y="160" width="90" height="60" as="geometry" />
        </mxCell>
        <mxCell id="DMQ3Dl5OGwyhOGXW6RPz-11" value="LOCAL API" style="rounded=0;whiteSpace=wrap;html=1;fillColor=#fff2cc;strokeColor=#d6b656;strokeWidth=3;shadow=0;comic=0;glass=1;" vertex="1" parent="1">
          <mxGeometry x="1291" y="160" width="90" height="60" as="geometry" />
        </mxCell>
        <mxCell id="DMQ3Dl5OGwyhOGXW6RPz-12" style="edgeStyle=orthogonalEdgeStyle;rounded=0;orthogonalLoop=1;jettySize=auto;html=1;startArrow=classic;startFill=1;strokeWidth=4;fillColor=#dae8fc;strokeColor=#6c8ebf;entryX=0.813;entryY=0.138;entryDx=0;entryDy=0;entryPerimeter=0;" edge="1" parent="1">
          <mxGeometry relative="1" as="geometry">
            <Array as="points">
              <mxPoint x="1151" y="618.96" />
              <mxPoint x="279" y="618.96" />
            </Array>
            <mxPoint x="1151" y="340" as="sourcePoint" />
            <mxPoint x="278.99" y="709" as="targetPoint" />
          </mxGeometry>
        </mxCell>
        <mxCell id="DMQ3Dl5OGwyhOGXW6RPz-13" style="edgeStyle=orthogonalEdgeStyle;rounded=0;orthogonalLoop=1;jettySize=auto;html=1;entryX=0.937;entryY=0.013;entryDx=0;entryDy=0;startArrow=classic;startFill=1;strokeWidth=4;exitX=0.5;exitY=1;exitDx=0;exitDy=0;entryPerimeter=0;" edge="1" parent="1" source="DMQ3Dl5OGwyhOGXW6RPz-4" target="Bu4rXw2DOO9tjyWhjlKE-17">
          <mxGeometry relative="1" as="geometry">
            <Array as="points">
              <mxPoint x="1246" y="560" />
              <mxPoint x="748" y="560" />
            </Array>
            <mxPoint x="1250" y="360" as="sourcePoint" />
            <mxPoint x="722.5" y="720" as="targetPoint" />
          </mxGeometry>
        </mxCell>
        <mxCell id="DMQ3Dl5OGwyhOGXW6RPz-15" style="edgeStyle=orthogonalEdgeStyle;rounded=0;orthogonalLoop=1;jettySize=auto;html=1;exitX=0.5;exitY=1;exitDx=0;exitDy=0;startArrow=classic;startFill=1;fillColor=#fff2cc;strokeColor=#d6b656;strokeWidth=4;" edge="1" parent="1" source="DMQ3Dl5OGwyhOGXW6RPz-6">
          <mxGeometry relative="1" as="geometry">
            <mxPoint x="1400" y="430" as="sourcePoint" />
            <mxPoint x="958" y="710" as="targetPoint" />
            <Array as="points">
              <mxPoint x="1336" y="580" />
              <mxPoint x="958" y="580" />
            </Array>
          </mxGeometry>
        </mxCell>
      </root>
    </mxGraphModel>
  </diagram>
</mxfile>
